<?xml version="1.0" encoding="UTF-8" standalone="no"?>
<!-- Created with Inkscape (http://www.inkscape.org/) -->

<svg
   width="105.9621mm"
   height="155.12589mm"
   viewBox="0 0 105.9621 155.12589"
   version="1.1"
   id="svg1"
   inkscape:version="1.3 (0e150ed6c4, 2023-07-21)"
   sodipodi:docname="storage_code.svg"
   xmlns:inkscape="http://www.inkscape.org/namespaces/inkscape"
   xmlns:sodipodi="http://sodipodi.sourceforge.net/DTD/sodipodi-0.dtd"
   xmlns="http://www.w3.org/2000/svg"
   xmlns:svg="http://www.w3.org/2000/svg">
  <sodipodi:namedview
     id="namedview1"
     pagecolor="#ffffff"
     bordercolor="#999999"
     borderopacity="1"
     inkscape:showpageshadow="0"
     inkscape:pageopacity="0"
     inkscape:pagecheckerboard="0"
     inkscape:deskcolor="#d1d1d1"
     inkscape:document-units="mm"
     inkscape:zoom="0.70822811"
     inkscape:cx="343.81578"
     inkscape:cy="544.31615"
     inkscape:window-width="1920"
     inkscape:window-height="991"
     inkscape:window-x="-9"
     inkscape:window-y="-9"
     inkscape:window-maximized="1"
     inkscape:current-layer="layer1" />
  <defs
     id="defs1" />
  <g
     inkscape:label="Layer 1"
     inkscape:groupmode="layer"
     id="layer1"
     transform="translate(-14.022916,-4.4979188)">
    <path
       style="fill:#000000"
       d="m 28.400745,159.54284 c -5.02117,-0.84839 -9.89059,-4.6302 -12.40347,-9.6331 -2.09899,-4.17886 -1.97455,-0.93459 -1.9723,-51.420114 0.001,-29.77298 0.0946,-45.46022 0.27686,-46.58378 0.75137,-4.63073 3.05663,-8.26539 6.97496,-10.99728 2.51337,-1.75234 2.53581,-1.77771 2.54157,-2.87269 0.0124,-2.35525 1.71482,-4.75258 4.22753,-5.95313 l 1.45521,-0.69529 37.703123,-0.0756 c 20.73672,-0.0416 37.851952,-0.12996 38.033852,-0.19642 0.24367,-0.089 0.33073,-1.12339 0.33073,-3.92948 0,-4.68205 -0.27474,-6.2616 -1.31827,-7.57918 -1.58958,-2.007 1.3895,-1.85794 -37.133242,-1.85794 H 32.582215 l -0.54837,0.69714 c -0.74873,0.95186 -0.70736,2.22904 0.10046,3.10068 l 0.64882,0.7001 h 15.58357 c 10.429889,0 15.853353,0.094 16.399343,0.28438 1.41585,0.49356 2.10015,2.33848 1.37201,3.69902 -0.70348,1.31447 -0.60979,1.30794 -18.830583,1.31286 -18.55486,0.005 -19.29788,0.0559 -21.95656,1.5029 -0.74579,0.40591 -1.95395,1.41735 -2.68481,2.24765 -0.73086,0.83029 -1.42673,1.44912 -1.54639,1.37517 -0.30114,-0.18612 -0.27492,-15.33898 0.0293,-16.94321 1.08533,-5.72291 5.67126,-10.3816902 10.90421,-11.0774302 2.05823,-0.27365 24.589449,-0.14306 25.68918,0.14889 1.861549,0.49419 3.818859,1.78091 5.292343,3.47914 0.76525,0.88197 1.8893,2.1537402 2.49791,2.8261602 l 1.10655,1.22259 18.20803,0.13229 18.208032,0.13229 1.54884,0.75983 c 2.71249,1.33067 4.47143,3.30129 5.54046,6.20722 0.51877,1.41015 0.55263,2.05176 0.56765,10.75418 l 0.016,9.25455 1.19062,0.64871 c 0.65485,0.35679 2.11108,1.56311 3.23608,2.6807 1.64968,1.63882 2.24431,2.46154 3.07315,4.25195 1.89052,4.08378 1.76084,0.30939 1.7579,51.16787 -0.002,43.180754 -0.0317,46.144214 -0.4701,47.757284 -1.10953,4.08216 -3.63082,7.95541 -6.66416,10.2376 -1.82032,1.36956 -2.7719,1.87733 -5.1662,2.75676 l -1.71979,0.63168 -38.100002,0.0378 c -20.955002,0.0208 -38.714222,-0.066 -39.464942,-0.19279 z m 34.816523,-8.02519 c 0.17115,-0.20622 0.27502,-0.83129 0.23084,-1.38906 l -0.0803,-1.01413 h 3.83646 3.83646 v 1.32292 1.32291 l 2.64583,-0.018 c 1.9048,-0.013 2.86814,-0.13781 3.43958,-0.4457 3.41588,-1.84047 4.30597,-5.84754 1.90607,-8.58087 -1.2953,-1.47526 -2.54872,-1.92299 -5.40249,-1.92979 -2.1432,-0.005 -2.47122,0.0561 -2.71201,0.50603 -0.1849,0.34548 -0.18793,0.73806 -0.009,1.20785 0.5673,1.49211 0.61247,1.47538 -3.77028,1.39605 -4.47445,-0.081 -4.11008,0.0985 -3.72505,-1.83546 0.10791,-0.54199 -0.006,-0.79991 -0.49499,-1.12027 -0.90182,-0.5909 -4.498114,-0.2992 -6.073185,0.49259 -4.11503,2.06865 -3.64489,8.50996 0.735091,10.07119 1.405849,0.50111 5.225114,0.51044 5.637314,0.0138 z m -27.717733,-1.91503 c 0.74867,-0.67754 0.63158,-2.05334 -0.2326,-2.73311 -0.68406,-0.53808 -0.94819,-0.55988 -5.84263,-0.48222 -4.71667,0.0748 -5.15614,0.12237 -5.50126,0.59493 -0.50546,0.69213 -0.474,1.98125 0.0628,2.57443 0.39643,0.43805 0.93922,0.48385 5.73386,0.48385 4.55666,0 5.36351,-0.0611 5.77982,-0.43788 z m 75.245935,-0.21282 c 0.4876,-0.74417 0.32538,-2.02033 -0.32547,-2.56049 -0.24436,-0.20279 -1.14764,-0.33734 -2.26478,-0.33734 -1.62377,0 -1.92096,0.0774 -2.35465,0.61295 -0.61339,0.7575 -0.6385,1.81079 -0.0585,2.45173 0.35311,0.39019 0.8385,0.48385 2.50744,0.48385 1.90645,0 2.10316,-0.0513 2.49592,-0.6507 z m -6.88442,-5.02581 c 0.79528,-0.79529 0.8211,-1.44221 0.0944,-2.36602 -0.54879,-0.69767 -0.5877,-0.70473 -3.47787,-0.631 -2.824962,0.0721 -2.940612,0.0984 -3.452832,0.78533 -0.46796,0.62759 -0.49038,0.80632 -0.19161,1.52762 0.1861,0.44928 0.53111,0.92949 0.76669,1.06714 0.23558,0.13765 1.59459,0.25389 3.020042,0.25831 2.40436,0.007 2.63866,-0.0389 3.24114,-0.64138 z m -4.055142,-11.00388 c 3.165162,-0.87905 5.103002,-5.35567 3.695632,-8.53728 -0.89013,-2.01227 -1.83504,-3.02688 -3.652042,-3.92138 -1.48313,-0.73015 -1.87935,-0.8151 -3.23026,-0.6926 -1.89856,0.17215 -3.3607,0.89343 -4.60653,2.27242 -1.3701,1.51653 -1.60719,2.07048 -1.77347,4.14361 l -0.14855,1.85208 H 66.807348 43.524015 l -0.0697,-8.83208 c -0.0497,-6.29751 0.0165,-8.93602 0.23083,-9.19427 0.16533,-0.1992 0.70814,-0.36219 1.20626,-0.36219 0.6088,0 1.11855,-0.21288 1.55511,-0.64943 0.72183,-0.72183 0.77911,-0.99513 0.36912,-1.7612 -0.46128,-0.86191 -4.74469,-6.13704 -5.29794,-6.52456 -0.81999,-0.57434 -1.46841,-0.15677 -3.11874,2.00841 -0.85184,1.1176 -1.98194,2.54927 -2.51132,3.1815 -1.62846,1.94482 -1.1245,3.74528 1.04832,3.74528 0.45913,0 0.96449,0.1563 1.12303,0.34732 0.19469,0.23459 0.31255,3.83467 0.36312,11.09144 l 0.0749,10.74412 0.64143,0.68252 0.64144,0.68252 29.521063,-10e-4 c 19.49067,-9.7e-4 29.85539,-0.0943 30.50504,-0.27475 z m -73.319953,-1.07425 c 0.42723,-0.42724 0.51817,-0.74951 0.39097,-1.38552 -0.24686,-1.23429 -0.75751,-1.58211 -2.50875,-1.70878 -1.41983,-0.1027 -1.64486,-0.0463 -2.25697,0.56582 -0.81459,0.8146 -0.8746,1.83217 -0.15073,2.55604 0.78072,0.78072 3.73519,0.76273 4.52548,-0.0276 z m 43.410293,-15.42414 c 3.69912,-1.3211 5.64715,-5.98889 3.95671,-9.48088 -0.56771,-1.17274 -1.81689,-2.50232 -3.19122,-3.39662 -0.52884,-0.34413 -0.65831,-0.68575 -0.75229,-1.98502 -0.14078,-1.94629 0.17863,-2.288884 2.55654,-2.742094 2.23092,-0.42519 5.23895,-1.60088 7.40562,-2.89449 6.00092,-3.58286 10.3108,-9.29021 12.03938,-15.94318 1.99219,-7.66749 0.47657,-15.41685 -4.26577,-21.81088 -0.85593,-1.15404 -2.42883,-2.89438 -3.49533,-3.86742 -1.8095,-1.65092 -1.92939,-1.82775 -1.79383,-2.64583 0.23837,-1.43854 1.26558,-3.91939 1.62286,-3.91939 0.65052,0 2.9647,1.75114 5.06999,3.83646 2.19173,2.17094 4.71928,5.66078 6.13403,8.46937 1.89659,3.76515 3.24212,9.42549 3.24212,13.63885 0,4.09265 -0.93863,9.07713 -2.28273,12.1221 -0.34523,0.78209 -0.62768,1.71024 -0.62768,2.06255 0,0.82876 0.90752,1.72001 2.65104,2.60352 1.883652,0.95452 2.373252,0.68431 3.304842,-1.82388 2.16596,-5.83154 3.09568,-12.28039 2.55551,-17.72584 -1.0878,-10.9662 -6.502282,-20.32722 -15.792432,-27.30335 -2.00705,-1.50712 -2.11859,-1.64538 -2.25132,-2.7905 -0.23762,-2.04999 -0.60213,-2.35211 -4.52091,-3.74702 -3.83362,-1.3646 -4.37135,-1.44867 -5.50752,-0.86114 -1.66914,0.86315 -2.22228,2.16759 -4.68787,11.05525 -0.15695,0.56573 -1.14521,0.84138 -2.32824,0.6494 -0.48598,-0.0789 -2.09867,-0.0378 -3.58375,0.0911 -10.832633,0.94094 -19.765673,8.11837 -22.938063,18.43002 -0.65961,2.14403 -0.71584,2.68188 -0.71351,6.82535 0.002,3.80915 0.0916,4.82204 0.58401,6.61458 1.53421,5.58458 4.98824,10.66928 9.61688,14.15707 3.24006,2.44145 6.609319,3.9781 10.449663,4.76587 0.84918,0.17419 1.69279,0.43744 1.87469,0.58501 0.20641,0.16745 0.33073,0.951064 0.33073,2.084674 v 1.81637 l -1.02388,0.64635 c -2.210994,1.39573 -3.209464,3.30965 -3.209464,6.15206 0,2.71953 1.656684,5.16028 4.274024,6.29681 1.10143,0.47828 4.00196,0.49729 5.29717,0.0347 z m -4.09123,-4.65986 c -1.87527,-1.47508 -0.66379,-4.49469 1.8033,-4.49469 1.06579,0 2.24174,1.32156 2.24174,2.51933 0,2.00811 -2.46998,3.21431 -4.04504,1.97536 z m -1.62109,-25.957474 c -3.388024,-0.7946 -6.814674,-3.60369 -8.451963,-6.92874 -3.229661,-6.55886 -0.520171,-13.89738 6.392813,-17.31456 1.95569,-0.96673 2.08575,-0.99288 4.93811,-0.99288 2.60362,0 3.13502,0.0832 4.77658,0.74824 3.47292,1.40687 6.17825,4.19713 7.55174,7.78884 0.90233,2.3596 0.86224,5.68336 -0.0998,8.27492 -1.56418,4.21359 -4.83052,7.23278 -9.04446,8.3601 -1.4888,0.39829 -4.50221,0.43014 -6.06301,0.0641 z m -27.957343,4.49857 c 2.80916,-1.56881 2.86751,-1.77227 1.4991,-5.22798 -1.42911,-3.60899 -1.86858,-6.16361 -1.87179,-10.88072 -0.003,-4.53934 0.30692,-6.59016 1.51984,-10.05417 2.84119,-8.11421 8.13457,-14.24209 15.413979,-17.84403 2.9987,-1.48379 3.034631,-1.49847 5.552971,-2.27018 3.592643,-1.1009 3.571873,-1.08416 3.571873,-2.87862 0,-1.97592 -0.139694,-2.329 -1.122534,-2.83725 -0.91863,-0.47504 -1.64407,-0.38512 -4.962879,0.61515 -12.61776,3.80291 -22.31655,14.49436 -25.27397,27.86076 -0.58214,2.63102 -0.80574,9.55144 -0.40683,12.59116 0.77593,5.91271 2.90312,11.75051 4.28167,11.75051 0.17708,0 0.98644,-0.37108 1.79857,-0.82463 z m -9.33267,-37.10921 c 1.55415,-1.33682 0.45676,-3.97616 -1.65322,-3.97616 -2.03297,0 -2.92362,2.35522 -1.44849,3.83035 0.96488,0.96488 2.08809,1.01769 3.10171,0.14581 z m 82.624725,0.2405 c 0.86135,-0.44542 1.07726,-0.87848 1.07726,-2.16073 0,-0.6518 -0.20249,-1.10469 -0.7001,-1.56586 -0.90526,-0.83897 -1.95892,-0.8262 -2.98377,0.0362 -0.64755,0.54488 -0.81405,0.89182 -0.81405,1.69628 0,0.80445 0.1665,1.15139 0.81405,1.69627 0.92766,0.78057 1.53826,0.85035 2.60661,0.29789 z"
       id="path1" />
  </g>
</svg>
