<?xml version="1.0" encoding="UTF-8" standalone="no"?>
<!-- Created with Inkscape (http://www.inkscape.org/) -->

<svg
   width="108.83762mm"
   height="119.76797mm"
   viewBox="0 0 108.83763 119.76798"
   version="1.1"
   id="svg1"
   inkscape:version="1.3 (0e150ed6c4, 2023-07-21)"
   sodipodi:docname="storage_logo.svg"
   xml:space="preserve"
   xmlns:inkscape="http://www.inkscape.org/namespaces/inkscape"
   xmlns:sodipodi="http://sodipodi.sourceforge.net/DTD/sodipodi-0.dtd"
   xmlns="http://www.w3.org/2000/svg"
   xmlns:svg="http://www.w3.org/2000/svg"><sodipodi:namedview
     id="namedview1"
     pagecolor="#ffffff"
     bordercolor="#999999"
     borderopacity="1"
     inkscape:showpageshadow="0"
     inkscape:pageopacity="0"
     inkscape:pagecheckerboard="0"
     inkscape:deskcolor="#d1d1d1"
     inkscape:document-units="mm"
     inkscape:zoom="0.70822811"
     inkscape:cx="7.7658595"
     inkscape:cy="331.10801"
     inkscape:window-width="1920"
     inkscape:window-height="991"
     inkscape:window-x="-9"
     inkscape:window-y="-9"
     inkscape:window-maximized="1"
     inkscape:current-layer="layer1" /><defs
     id="defs1" /><g
     inkscape:label="Layer 1"
     inkscape:groupmode="layer"
     id="layer1"
     transform="translate(-102.85261,-61.016526)"><path
       style="fill:#000000"
       d="m 107.6326,180.62134 c -5.03382,-1.54193 -6.43499,-7.2983 -2.54341,-10.44902 l 1.00609,-0.81456 12.74191,-0.13229 12.74191,-0.13229 -1.19063,-0.63059 c -1.05892,-0.56084 -4.14411,-2.55176 -5.74637,-3.70823 -0.32285,-0.23303 -0.59074,-0.5112 -0.59531,-0.61816 -0.005,-0.10696 15.0531,-0.19713 33.46148,-0.20038 18.40838,-0.003 33.46804,0.0843 33.4659,0.19448 -0.005,0.27535 -4.56107,3.30291 -6.34611,4.21738 l -1.45521,0.7455 12.56771,0.13229 c 8.86052,0.0933 12.7238,0.22313 13.09687,0.44025 0.29105,0.16938 0.843,0.64563 1.22657,1.05833 2.8072,3.02044 1.88153,7.35406 -2.01685,9.44208 l -1.0618,0.56871 -49.34479,0.0448 c -27.13964,0.0246 -49.64322,-0.0466 -50.00796,-0.15832 z m 33.30881,-4.21771 c -0.78424,-0.69031 -1.32225,-1.46615 -1.65132,-2.38125 l -0.48809,-1.35733 h -15.70114 -15.70113 l -0.41188,0.58804 c -0.53415,0.76261 -0.52555,2.04234 0.0189,2.81972 0.93578,1.336 0.89821,1.33329 18.59029,1.34439 l 16.50756,0.0103 z m 65.82627,0.33867 c 0.41076,-0.30413 0.91359,-0.89353 1.11741,-1.30977 0.33011,-0.67419 0.31561,-0.85935 -0.13278,-1.696 l -0.50334,-0.93919 -15.09146,-0.0683 -15.09147,-0.0683 -0.32223,1.20477 c -0.22407,0.83779 -0.69352,1.56562 -1.54115,2.38943 l -1.21893,1.18467 16.01856,-0.0722 c 15.77671,-0.0711 16.02983,-0.0805 16.76539,-0.62515 z m -34.81511,-2.37013 c 0.70142,-0.36272 1.29841,-1.27719 1.29841,-1.98892 0,-0.14206 -1.63331,-0.24736 -3.83646,-0.24736 -2.79124,0 -3.83646,-0.0858 -3.83646,-0.3151 0,-0.1733 -0.31051,-1.28988 -0.69003,-2.4813 -0.61905,-1.94337 -0.74833,-2.15149 -1.25677,-2.02322 -0.31171,0.0786 -0.65421,0.2725 -0.76113,0.43078 -0.11548,0.17098 -0.20358,0.073 -0.21703,-0.24137 l -0.0226,-0.52917 -0.22739,0.52917 -0.22739,0.52916 -0.027,-0.52916 c -0.0242,-0.47506 -0.0603,-0.48543 -0.3527,-0.10142 -0.29708,0.39017 -0.36008,0.39093 -0.71722,0.009 -0.35541,-0.38047 -0.40111,-0.37111 -0.49531,0.10142 -0.10244,0.51384 -0.10649,0.51372 -0.3141,-0.009 -0.17834,-0.4487 -0.21315,-0.45876 -0.22892,-0.0661 -0.0102,0.25466 -0.14469,0.46302 -0.2988,0.46302 -0.15411,0 -0.20661,-0.11906 -0.11667,-0.26458 0.0899,-0.14552 0.0374,-0.26458 -0.11668,-0.26458 -0.15411,0 -0.2802,0.11906 -0.2802,0.26458 0,0.14552 -0.12609,0.26458 -0.2802,0.26458 -0.15411,0 -0.20661,-0.11906 -0.11667,-0.26458 0.0899,-0.14552 -0.0779,-0.26458 -0.37296,-0.26458 -0.38939,0 -0.49701,-0.12695 -0.39251,-0.46302 0.13613,-0.43784 0.1277,-0.43772 -0.15492,0.002 -0.16438,0.25581 -0.21005,0.613 -0.10148,0.79375 0.13177,0.21936 0.0486,0.2079 -0.25026,-0.0345 -0.37943,-0.30778 -0.44828,-0.30778 -0.45172,0 -0.003,0.28522 -0.0591,0.27798 -0.26053,-0.0337 -0.22798,-0.35278 -0.259,-0.35278 -0.27913,0 -0.0153,0.26736 -0.0969,0.22418 -0.25004,-0.13229 l -0.22739,-0.52917 -0.045,0.52917 c -0.0382,0.44951 -0.0768,0.42959 -0.2568,-0.13229 -0.13186,-0.41174 -0.22179,-0.49255 -0.23821,-0.21406 -0.0145,0.24608 -0.16383,0.53236 -0.33184,0.6362 -0.18926,0.11696 -0.23364,0.0726 -0.11668,-0.11668 0.10384,-0.16801 0.0627,-0.30546 -0.0914,-0.30546 -0.15411,0 -0.28856,0.14882 -0.29879,0.33073 -0.0102,0.1819 -0.12092,0.0926 -0.24599,-0.19844 l -0.22739,-0.52917 -0.0372,0.52917 -0.0372,0.52916 -0.2274,-0.52916 -0.22739,-0.52917 -0.0226,0.52917 c -0.0188,0.44018 -0.0658,0.46243 -0.27913,0.13229 -0.22798,-0.35278 -0.259,-0.35278 -0.27913,0 -0.0153,0.26736 -0.0969,0.22418 -0.25004,-0.13229 -0.22034,-0.51275 -0.22797,-0.51324 -0.24599,-0.0156 -0.0181,0.49952 -0.0285,0.50003 -0.38064,0.0185 -0.3529,-0.48262 -0.36874,-0.48223 -0.62728,0.0156 -0.14587,0.28089 -0.53608,1.43344 -0.86712,2.56123 l -0.60189,2.05052 h -3.66562 c -3.53449,0 -3.66562,0.0197 -3.66562,0.54952 0,0.30223 0.34802,0.89754 0.77339,1.32291 l 0.7734,0.7734 h 13.39495 c 11.57335,0 13.50265,-0.0557 14.18693,-0.40955 z m 35.70567,-11.57075 c -0.84526,-0.42528 -1.01149,-1.10124 -1.04339,-4.24282 -0.0342,-3.36402 0.33588,-4.1376 1.98314,-4.14574 1.47214,-0.007 1.69465,0.55406 1.69465,4.27525 0,2.82262 -0.0684,3.37163 -0.46302,3.71818 -0.70639,0.6203 -1.4536,0.75627 -2.17138,0.39513 z m -90.41295,-2.90251 c -4.93347,-5.12463 -9.76518,-14.35983 -11.83609,-22.62316 -1.20388,-4.8037 -1.58094,-8.02921 -1.58502,-13.55861 -0.004,-5.94396 0.41451,-9.25194 1.82186,-14.38695 1.82592,-6.66224 4.54277,-12.178157 8.91049,-18.090647 l 1.80796,-2.447401 -3.10832,-0.001 c -3.5014,-0.002 -4.72694,-0.25409 -5.85922,-1.20684 -1.59105,-1.33878 -1.64667,-1.81055 -1.56044,-13.23556 l 0.078,-10.336648 0.76303,-0.999992 c 1.50401,-1.971072 1.61999,-1.988371 13.37478,-1.994917 10.09775,-0.0056 10.47098,0.01226 11.59298,0.555409 0.69757,0.337688 1.44218,0.988289 1.86948,1.633453 0.70781,1.068713 0.71042,1.091074 0.79444,6.812769 l 0.0843,5.740536 2.82612,-1.10862 c 6.67286,-2.61762 13.24112,-3.849775 20.52203,-3.849775 5.72478,0 11.01304,0.900295 17.17515,2.923955 8.42275,2.76608 15.0381,6.84769 20.8303,12.85213 8.18598,8.485921 13.32456,19.033818 14.96091,30.710048 0.57623,4.1117 0.39781,11.57875 -0.38124,15.95553 -1.7288,9.71253 -6.01774,19.13883 -11.8278,25.99531 l -1.51337,1.78594 h -39.3289 -39.32891 z m 74.67753,-3.34508 c 1.30155,-0.59115 2.67612,-2.18555 3.03795,-3.52381 0.16845,-0.62304 0.23859,-7.24692 0.19191,-18.12395 -0.0682,-15.89692 -0.10802,-17.20512 -0.54768,-18.01024 -0.69529,-1.27323 -1.88545,-2.30921 -3.05565,-2.65981 -1.42236,-0.42615 -66.09433,-0.44027 -67.64317,-0.0148 -1.58667,0.4359 -3.18279,2.21967 -3.56667,3.98601 -0.21902,1.00772 -0.28218,6.15467 -0.22184,18.07759 l 0.0844,16.66875 0.71676,1.21923 c 0.73821,1.25572 1.60485,1.98994 2.9874,2.53095 0.59181,0.23158 9.20825,0.31424 33.86667,0.32492 31.6242,0.0137 33.1201,-0.007 34.14997,-0.47487 z m -56.14631,-8.47208 c -1.69957,-1.2585 -9.0922,-8.91868 -9.0922,-9.42126 0,-0.45044 8.19494,-8.83943 9.4983,-9.72322 0.54898,-0.37226 0.72775,-0.38179 1.32292,-0.0705 0.98788,0.51668 9.5517,9.25372 9.5517,9.7449 0,0.45894 -8.80532,9.48822 -9.69322,9.93978 -0.46931,0.23867 -0.73839,0.15906 -1.5875,-0.46969 z m 3.94304,-12.2556 -2.83995,-2.84879 -2.86,2.84437 -2.86001,2.84437 2.85559,2.77812 2.85559,2.77813 2.84437,-2.77371 2.84436,-2.77371 z m 14.62872,11.11545 c -0.55435,-0.79144 -0.5184,-1.4221 0.11729,-2.0578 0.5171,-0.51709 0.88195,-0.52916 15.99229,-0.52916 h 15.46312 l 0.41188,0.58804 c 0.56558,0.80748 0.51633,1.4107 -0.16718,2.04748 -0.56901,0.53011 -0.84662,0.53948 -15.99229,0.53948 h -15.41323 z m 0.0154,-11.17661 c -0.56412,-0.86096 -0.53899,-1.35284 0.10186,-1.99369 0.51708,-0.51707 0.88195,-0.52916 15.96629,-0.52916 14.6192,0 15.46031,0.0256 15.87499,0.48385 0.58878,0.65059 0.55213,1.51857 -0.0913,2.16198 -0.51708,0.51708 -0.88194,0.52917 -15.97686,0.52917 h -15.4477 z m 30.16775,-14.18372 c -0.83977,-0.66057 -0.89303,-1.52284 -0.14373,-2.32711 0.74186,-0.7963 1.99149,-0.67524 2.68673,0.26029 0.47784,0.64299 0.48514,0.74856 0.1029,1.48772 -0.34491,0.66699 -1.0448,1.1074 -1.786,1.12386 -0.0895,0.002 -0.47647,-0.24316 -0.8599,-0.54476 z m -56.25964,-0.24538 c -0.29104,-0.29104 -0.52917,-0.76729 -0.52917,-1.05833 0,-0.73338 0.9253,-1.5875 1.71979,-1.5875 0.77355,0 1.71979,0.84808 1.71979,1.54137 0,0.64949 -1.08616,1.63363 -1.80299,1.63363 -0.31804,0 -0.81638,-0.23813 -1.10742,-0.52917 z m 8.35979,-0.044 c -0.84321,-1.20386 -0.20279,-2.60657 1.18604,-2.59778 0.80057,0.005 1.13396,0.22413 1.55405,1.02117 0.76655,1.45436 -1.79384,2.92757 -2.74009,1.57661 z m 8.74207,0.17472 c -1.10637,-1.10637 -0.49791,-2.77655 1.01152,-2.77655 1.58375,0 2.27695,1.58683 1.15131,2.63552 -0.68422,0.63745 -1.60629,0.69758 -2.16283,0.14103 z m -30.46503,25.27204 c 0.33046,-0.53469 0.24791,-2.41468 -0.1159,-2.63952 -0.70551,-0.43603 -1.07301,0.009 -1.07301,1.29805 0,0.68778 0.0794,1.32989 0.17638,1.4269 0.26152,0.26151 0.82763,0.21375 1.01253,-0.0854 z m 87.18192,-2.35571 c 0,-1.4514 -0.62255,-2.04056 -1.24979,-1.18276 -0.70485,0.96394 -0.32814,2.47737 0.61664,2.47737 0.58154,0 0.63315,-0.10551 0.63315,-1.29461 z M 112.79368,132.3161 c 0,-1.07736 -0.0901,-1.33303 -0.49746,-1.41148 -0.87299,-0.16812 -1.19962,0.87313 -0.69239,2.20725 0.17313,0.45538 0.426,0.667 0.7276,0.60892 0.36604,-0.0705 0.46225,-0.36287 0.46225,-1.40469 z m 91.5242,0.50086 c 0.65147,-0.25 0.57408,-2.38337 -0.0995,-2.74388 -0.87154,-0.46643 -1.34314,0.82722 -0.8114,2.22579 0.28198,0.74168 0.30063,0.75229 0.91095,0.51809 z m 0.0216,-17.43782 c 0,-1.14995 -0.0733,-1.32974 -0.57095,-1.40065 -0.44292,-0.0631 -0.60853,0.0898 -0.73853,0.68164 -0.2278,1.03713 0.25204,2.24195 0.84723,2.12732 0.36624,-0.0705 0.46225,-0.36304 0.46225,-1.40831 z m -92.73646,-0.10036 c 0,-0.93934 -0.11546,-1.33892 -0.42075,-1.45607 -0.57938,-0.22233 -0.81565,-0.025 -0.97626,0.81515 -0.19337,1.01152 0.21781,1.93553 0.86129,1.93553 0.46491,0 0.53572,-0.17111 0.53572,-1.29461 z m 74.6125,-4.7816 c 0,-0.14046 -0.36274,-0.66851 -0.80608,-1.17345 -1.63139,-1.85805 -0.10307,-1.76979 -29.22413,-1.68771 l -26.19375,0.0738 -0.92604,0.57704 c -0.79654,0.49634 -1.85208,1.81175 -1.85208,2.30805 0,0.0867 13.27547,0.15762 29.50104,0.15762 18.78195,0 29.50104,-0.0928 29.50104,-0.25538 z m 14.49771,-1.33212 c 0.0943,-1.12115 -0.43132,-1.95369 -1.07709,-1.70589 -0.33212,0.12745 -0.45604,0.47885 -0.45604,1.29322 0,1.27968 0.15815,1.52438 0.91516,1.41601 0.40748,-0.0583 0.55918,-0.30462 0.61797,-1.00334 z m -76.53106,-0.31667 c 0.26676,-1.21458 2.66705,-3.52413 4.11817,-3.9625 0.91099,-0.2752 4.66331,-0.35104 17.36774,-0.35104 8.91313,0 16.20431,-0.0595 16.20262,-0.13229 -0.002,-0.0728 -2.31266,-2.44441 -5.1355,-5.270337 l -5.13243,-5.13804 -11.98106,0.0654 c -13.53365,0.0739 -13.22949,0.0293 -14.78013,2.16988 -0.95892,1.32375 -1.04457,1.96579 -1.131,8.478757 -0.0656,4.9403 0.0579,6.02383 0.47159,4.14013 z m 7.05721,-9.256967 c -0.47552,-0.47553 -0.39171,-1.20434 0.20739,-1.80345 0.49963,-0.49963 0.88194,-0.52916 6.84985,-0.52916 5.81012,0 6.37072,0.0405 6.93999,0.50147 0.53294,0.43155 0.58227,0.60679 0.35379,1.25677 l -0.2655,0.7553 -6.88187,0.0704 c -5.13065,0.0525 -6.96375,-0.0115 -7.20365,-0.25136 z m -14.34465,7.986137 c 0,-1.30531 -0.36457,-1.75169 -1.07302,-1.31385 -0.44909,0.27755 -0.41396,2.37184 0.0445,2.65521 0.66467,0.41079 1.02849,-0.0637 1.02849,-1.34136 z m 81.1996,-2.4474 c 0.1232,-0.32742 0.16533,-0.98865 0.0936,-1.4694 -0.1058,-0.70934 -0.23653,-0.85895 -0.69358,-0.79375 -0.93846,0.13387 -0.97257,2.85846 -0.0358,2.85846 0.22645,0 0.51252,-0.26789 0.63573,-0.59531 z m -7.49555,-4.0349 c 0.8744,-2.214307 3.10977,-3.841567 5.84495,-4.254887 l 1.2812,-0.19361 -1.67595,-0.34337 c -4.00051,-0.81962 -6.05842,-3.44673 -6.15313,-7.855001 -0.0205,-0.95552 -0.072,-0.84642 -0.36674,0.777611 -0.52268,2.87991 -0.90311,3.78432 -2.09084,4.97065 -1.08839,1.08711 -2.41226,1.71409 -4.66229,2.20806 -1.02316,0.22462 -1.07643,0.26585 -0.37875,0.29316 1.64979,0.0646 3.59333,0.85111 4.75973,1.92625 1.27055,1.17116 2.078,2.946177 2.40777,5.293057 l 0.19833,1.41142 0.2089,-1.5875 c 0.1149,-0.87313 0.39697,-2.06375 0.62682,-2.64584 z m -73.15965,-1.892157 c 0.35415,-0.93147 -0.0312,-2.07659 -0.69874,-2.07659 -0.39759,0 -0.52522,0.22032 -0.5909,1.02002 -0.0461,0.561 -0.02,1.18608 0.0578,1.38906 0.23387,0.609457 0.94684,0.41701 1.2318,-0.33249 z m 57.93447,-4.28074 c 0.87194,-2.0269 2.27246,-3.20364 4.82161,-4.05124 1.68188,-0.55922 1.98851,-0.72958 1.33392,-0.7411 -1.29295,-0.0228 -3.54204,-0.96917 -4.54416,-1.912161 -1.05663,-0.9943 -2.11319,-3.17135 -2.38964,-4.92389 l -0.19698,-1.2487 -0.20803,1.32291 c -0.32513,2.06749 -1.16647,3.75852 -2.41814,4.86028 -1.1709,1.030671 -3.23445,1.868651 -4.70315,1.909891 -0.62174,0.0174 -0.39875,0.13536 0.89028,0.47072 3.213,0.83592 4.74762,2.12379 5.67769,4.76477 0.22425,0.63676 0.40773,1.54976 0.40773,2.02888 0,1.70481 0.37431,1.91587 0.57847,0.32618 0.10696,-0.83285 0.44464,-2.09579 0.7504,-2.80654 z m -9.48564,1.63398 c 0.61217,-0.554 0.60705,-0.76184 -0.0346,-1.40345 -0.51483,-0.51484 -0.52217,-0.51364 -1.06238,0.17312 -0.50998,0.64833 -0.51636,0.72206 -0.10204,1.17988 0.53983,0.5965 0.59313,0.59874 1.19899,0.0504 z m -6.71295,-8.713121 c 0.0973,-1.32754 -0.44345,-1.95637 -1.10954,-1.29027 -0.79693,0.79692 -0.4554,2.583461 0.46866,2.451621 0.45173,-0.0645 0.57715,-0.291731 0.64088,-1.161351 z M 130.91764,76.476992 V 65.749341 l -0.64943,-0.649432 -0.64943,-0.649432 h -9.54905 -9.54906 l -0.64943,0.649432 -0.64943,0.649432 v 8.986221 c 0,4.94242 0.074,9.17895 0.16435,9.41452 0.42584,1.10971 1.23544,1.20248 10.49405,1.20248 h 8.8326 l 1.03627,0.91503 c 0.56995,0.50326 1.06604,0.91998 1.10242,0.92604 0.0364,0.006 0.0662,-4.81643 0.0662,-10.71664 z m -13.36146,4.3693 c -2.5011,-0.52844 -3.90048,-2.26469 -4.05694,-5.03353 -0.13363,-2.36503 0.43586,-4.06176 1.83893,-5.47886 1.317,-1.330161 2.92734,-1.916599 5.24171,-1.908864 2.64825,0.0089 4.57678,1.097523 5.29305,2.987974 0.67463,1.78053 0.15207,4.60011 -1.09945,5.93229 l -0.56266,0.59892 0.64143,-0.006 c 0.35279,-0.003 0.93909,-0.23871 1.30289,-0.52328 0.93114,-0.72835 1.32292,-0.65911 1.32292,0.23379 0,1.68263 -3.05647,3.37555 -4.85784,2.69067 -0.51623,-0.19626 -0.88966,-0.19489 -1.2625,0.005 -0.77761,0.41617 -2.88867,0.69501 -3.80154,0.50213 z m 1.91823,-2.27508 c 0.72588,-0.19453 0.78773,-0.62699 0.0897,-0.62699 -0.2781,0 -0.81388,-0.36632 -1.19062,-0.81405 -1.14634,-1.36234 -0.79544,-3.81427 0.6953,-4.85843 1.36096,-0.95325 2.33607,-0.20321 2.84331,2.18701 0.19065,0.89836 0.43498,1.63339 0.54296,1.63339 0.25807,0 0.72565,-1.20993 0.93586,-2.42167 0.17979,-1.03636 -0.58651,-3.177227 -0.93526,-2.612929 -0.1275,0.206289 -0.51574,0.219379 -1.29749,0.04373 -2.26138,-0.508097 -4.02858,0.529748 -4.67226,2.743958 -0.62101,2.13618 0.10593,4.11155 1.73177,4.70589 0.54674,0.19987 0.58374,0.20046 1.25677,0.0201 z m 33.80727,5.45426 c 1.61559,-0.99848 2.14951,-3.11319 1.18531,-4.6946 -1.5766,-2.58583 -5.08789,-2.54155 -6.35705,0.0802 -0.63901,1.32002 -0.6565,2.00949 -0.0817,3.22079 0.87292,1.83955 3.43305,2.5187 5.25344,1.39364 z m -3.04945,-1.84791 c -0.66035,-0.66035 -0.68032,-1.63328 -0.0453,-2.20795 1.01259,-0.91639 2.69114,-0.2276 2.69114,1.1043 0,0.72004 -0.88744,1.63281 -1.5875,1.63281 -0.29104,0 -0.76729,-0.23812 -1.05833,-0.52916 z m 16.52636,-0.21862 c 0.22478,-1.0234 -0.25905,-2.22563 -0.85057,-2.11354 -0.3256,0.0617 -0.48702,0.38848 -0.54603,1.10541 -0.10771,1.30864 0.0747,1.75591 0.71591,1.75591 0.35165,0 0.56886,-0.23862 0.68069,-0.74778 z m -63.21032,76.888908 c -0.3223,-0.46015 -0.41188,-1.3479 -0.41188,-4.08184 0,-3.46668 0.005,-3.49809 0.70303,-4.0468 0.78476,-0.61729 1.49124,-0.53111 2.33968,0.2854 0.47536,0.45748 0.52917,0.8554 0.52917,3.91344 0,2.97633 -0.0633,3.47417 -0.50403,3.96101 -0.69379,0.76646 -2.1089,0.74983 -2.65597,-0.0312 z M 207.34539,95.694343 c -0.60082,-0.48684 -0.62462,-0.64279 -0.62462,-4.09176 0,-4.050731 0.18343,-4.503771 1.82358,-4.503771 1.63749,0 1.74829,0.27413 1.74829,4.325441 0,3.44775 -0.03,3.65388 -0.61236,4.20094 -0.75519,0.70945 -1.51684,0.73201 -2.33489,0.0692 z m -8.63562,-15.910421 c -1.73806,-0.86852 -2.8827,-1.99511 -3.82558,-3.76528 -0.49034,-0.92056 -0.59495,-1.53612 -0.59451,-3.49837 4.7e-4,-2.066521 0.0937,-2.558324 0.70516,-3.720959 0.73304,-1.393762 2.29104,-2.98146 3.57952,-3.647759 0.41181,-0.212956 1.43096,-0.513306 2.26477,-0.667444 5.04628,-0.932856 9.57638,2.871675 9.56875,8.036162 -0.004,2.48066 -0.78166,4.21892 -2.65426,5.93037 -1.6874,1.54219 -3.26962,2.13942 -5.66793,2.13942 -1.4352,0 -2.06242,-0.14978 -3.37592,-0.80614 z m 5.79818,-3.57818 c 1.03497,-0.5352 1.8669,-1.84111 2.01609,-3.16473 0.16869,-1.49655 -0.0437,-2.278632 -0.89305,-3.28798 -0.93728,-1.113904 -2.04485,-1.642486 -3.44159,-1.642486 -3.74341,0 -5.65355,4.778406 -2.94822,7.375306 1.43252,1.3751 3.46303,1.65265 5.26677,0.71989 z"
       id="path1"
       sodipodi:nodetypes="sscccsscccsccsssccsssscccscccscsscccsscscccsssssssccccscscsssssssssssscscccsssssssscccccssccsssscssscsccsscssscscssccsscscssscssssssscccccsssscsccsssccsssssssscccccccccssscssscssssssscsssssssssssssscssssssssscssssssssssscssccsssssssssscsscsssccssssscsscscssccccsssscscccsccccsssccsscsssssssscsscsccccsscsscsscssssscsssccsscsccccccccscscsccccsscssccsssccccssssssssssccssssssssssssssssssscsscssssssssssssssscssssscsss" /></g></svg>
