<?xml version="1.0" encoding="UTF-8" standalone="no"?>
<!-- Created with Inkscape (http://www.inkscape.org/) -->

<svg
   width="105.9621mm"
   height="155.12589mm"
   viewBox="0 0 105.9621 155.12589"
   version="1.1"
   id="svg1"
   inkscape:version="1.3 (0e150ed6c4, 2023-07-21)"
   sodipodi:docname="storage_directory.svg"
   xmlns:inkscape="http://www.inkscape.org/namespaces/inkscape"
   xmlns:sodipodi="http://sodipodi.sourceforge.net/DTD/sodipodi-0.dtd"
   xmlns="http://www.w3.org/2000/svg"
   xmlns:svg="http://www.w3.org/2000/svg">
  <sodipodi:namedview
     id="namedview1"
     pagecolor="#ffffff"
     bordercolor="#999999"
     borderopacity="1"
     inkscape:showpageshadow="0"
     inkscape:pageopacity="0"
     inkscape:pagecheckerboard="0"
     inkscape:deskcolor="#d1d1d1"
     inkscape:document-units="mm"
     inkscape:zoom="0.70822811"
     inkscape:cx="343.81578"
     inkscape:cy="544.31615"
     inkscape:window-width="1920"
     inkscape:window-height="991"
     inkscape:window-x="-9"
     inkscape:window-y="-9"
     inkscape:window-maximized="1"
     inkscape:current-layer="layer1" />
  <defs
     id="defs1" />
  <g
     inkscape:label="Layer 1"
     inkscape:groupmode="layer"
     id="layer1"
     transform="translate(-14.022916,-4.4979188)">
    <path
       d="m 28.38982,159.44965 c -1.63629,-0.27409 -4.84148,-1.51197 -4.84148,-1.86983 0,-0.13863 -0.10103,-0.18962 -0.22451,-0.1133 -0.12348,0.0763 -0.47569,-0.0952 -0.78269,-0.38126 -0.30699,-0.28601 -0.70272,-0.52002 -0.8794,-0.52002 -0.17668,0 -1.24428,-0.95715 -2.37245,-2.12701 -1.5829,-1.64138 -2.32446,-2.68342 -3.24798,-4.56406 -2.15493,-4.38826 -2.01821,-0.89968 -2.01597,-51.439955 10e-4,-29.796795 0.0946,-45.494615 0.27687,-46.618205 0.33236,-2.0484 1.63841,-5.5328 2.36695,-6.3148 0.29105,-0.31241 0.52919,-0.65002 0.52919,-0.75026 0,-0.45311 1.91126,-2.44638 3.01423,-3.14356 0.6705,-0.42383 1.2191,-0.87294 1.2191,-0.99803 0,-0.12509 0.11906,-0.15385 0.26458,-0.0639 0.14552,0.0899 0.26458,0.051 0.26458,-0.0865 0,-0.13753 0.41672,-0.4478 0.92605,-0.68949 0.86404,-0.41001 0.92621,-0.52274 0.92862,-1.68379 0.003,-1.53215 1.08608,-4.02248 1.74913,-4.02248 0.24923,0 0.37529,-0.0779 0.28013,-0.17303 -0.24699,-0.24699 1.37234,-1.73218 1.68078,-1.54155 0.14087,0.0871 0.25613,0.0583 0.25613,-0.0639 0,-0.12221 0.38695,-0.3879 0.85989,-0.59042 0.71781,-0.30739 7.09002,-0.38321 38.56302,-0.45887 20.73672,-0.0498 37.8652,-0.14972 38.0633,-0.22194 0.29246,-0.10662 0.33459,-1.01357 0.22412,-4.82466 -0.0748,-2.58135 -0.18177,-4.88416 -0.23766,-5.11735 -0.0559,-0.2332 -0.42464,-0.80788 -0.81944,-1.27708 -0.3948,-0.46919 -0.71782,-0.93491 -0.71782,-1.03494 0,-0.10003 -0.47707,-0.38855 -1.06015,-0.64116 -0.98845,-0.42823 -3.39365,-0.45929 -35.56725,-0.45929 H 32.58258 l -0.54837,0.69714 c -0.77982,0.99139 -0.72414,2.38657 0.12672,3.17512 l 0.67509,0.62566 15.59679,0.0331 c 8.57823,0.0182 15.71585,0.0628 15.86137,0.0992 0.14552,0.0364 0.38933,0.081 0.5418,0.0992 0.15247,0.0182 0.56919,0.34811 0.92604,0.73316 0.87626,0.9455 0.88079,2.44022 0.0105,3.45234 l -0.63835,0.74236 -18.21322,0.1397 c -19.80397,0.1519 -19.19933,0.10551 -21.88411,1.6789 -1.20619,0.70688 -3.50752,3.07484 -3.88823,4.00082 -0.11998,0.29182 -0.18932,-3.63661 -0.15409,-8.72983 0.0617,-8.91999 0.0864,-9.32121 0.67178,-10.91407 0.33425,-0.9095 0.72289,-1.65364 0.86364,-1.65364 0.14075,0 0.19151,-0.10419 0.11281,-0.23153 -0.29127,-0.47129 2.79636,-4.26639 3.47106,-4.26639 0.18973,0 0.34497,-0.10537 0.34497,-0.23415 0,-0.30431 1.21576,-1.09851 1.87633,-1.22573 0.28276,-0.0545 0.69914,-0.28404 0.92529,-0.51019 0.37994,-0.37995 0.59395,-0.4471 1.69661,-0.53243 0.21846,-0.0169 0.52742,-0.11122 0.68658,-0.20958 0.40567,-0.25072 25.46348,-0.10623 26.42968,0.15239 1.53195,0.41007 3.58583,1.81982 4.96186,3.40573 0.76525,0.88197 1.88931,2.15374 2.49791,2.82616 l 1.10655,1.22259 18.22231,0.13229 18.22232,0.1323 1.79202,0.90981 c 2.08623,1.05919 3.76617,2.78913 4.84816,4.99245 l 0.73959,1.50607 0.13229,9.83415 c 0.0728,5.40879 0.19182,9.88285 0.26458,9.94236 0.0728,0.0595 0.5459,0.27331 1.05141,0.47509 0.76531,0.30548 4.09505,3.38241 5.21189,4.81617 0.66222,0.85013 1.92337,3.62857 2.38218,5.24819 0.45692,1.61296 0.48106,4.02731 0.47852,47.868425 -0.002,43.219995 -0.0324,46.279665 -0.46786,47.889585 -0.61511,2.27401 -2.26832,5.69337 -3.38993,7.01146 -1.39651,1.64112 -3.48585,3.57187 -3.86528,3.57187 -0.18843,0 -0.3426,0.0971 -0.3426,0.21586 0,0.52683 -4.11798,2.32572 -6.02928,2.63381 -1.58127,0.2549 -75.98666,0.28825 -77.50007,0.0347 z m 7.11009,-9.93688 c 0.74035,-0.67001 0.63181,-2.05316 -0.21329,-2.7179 -0.64597,-0.50813 -1.04279,-0.54838 -5.40673,-0.54838 -2.59028,0 -5.01168,0.11485 -5.38089,0.25524 -1.06701,0.40566 -1.33462,2.04005 -0.48889,2.98591 0.36817,0.41176 1.00029,0.46302 5.70997,0.46302 4.55666,0 5.36352,-0.0611 5.77983,-0.43789 z m 75.24592,-0.21282 c 0.4876,-0.74416 0.32538,-2.02033 -0.32547,-2.56048 -0.24435,-0.2028 -1.14764,-0.33733 -2.26478,-0.33733 -1.62377,0 -1.92096,0.0774 -2.35465,0.61294 -0.61339,0.7575 -0.6385,1.81078 -0.0585,2.45172 0.35312,0.39019 0.8385,0.48386 2.50744,0.48386 1.90645,0 2.10316,-0.0513 2.49592,-0.65071 z M 26.8938,53.54432 c 1.08592,-0.93407 1.02287,-2.35242 -0.15119,-3.40145 -0.71444,-0.63835 -1.03602,-0.75672 -1.70657,-0.62821 -1.01442,0.19441 -2.01686,1.27961 -2.01686,2.18337 0,2.12014 2.28848,3.21063 3.87462,1.84629 z m 83.23944,-0.18784 c 0.71408,-0.87372 0.60705,-2.50459 -0.21855,-3.3302 -0.57063,-0.57063 -0.85118,-0.65882 -1.72355,-0.54181 -1.29523,0.17373 -2.07505,1.04004 -2.07558,2.30577 -6.5e-4,1.54079 1.08796,2.47767 2.62861,2.26225 0.50933,-0.0712 1.1344,-0.38443 1.38907,-0.69601 z"
       id="path4" />
  </g>
</svg>
