<?xml version="1.0" encoding="UTF-8" standalone="no"?>
<!-- Created with Inkscape (http://www.inkscape.org/) -->

<svg
   width="105.9621mm"
   height="155.12589mm"
   viewBox="0 0 105.9621 155.12589"
   version="1.1"
   id="svg1"
   inkscape:version="1.3 (0e150ed6c4, 2023-07-21)"
   sodipodi:docname="storage_data.svg"
   xmlns:inkscape="http://www.inkscape.org/namespaces/inkscape"
   xmlns:sodipodi="http://sodipodi.sourceforge.net/DTD/sodipodi-0.dtd"
   xmlns="http://www.w3.org/2000/svg"
   xmlns:svg="http://www.w3.org/2000/svg">
  <sodipodi:namedview
     id="namedview1"
     pagecolor="#ffffff"
     bordercolor="#999999"
     borderopacity="1"
     inkscape:showpageshadow="0"
     inkscape:pageopacity="0"
     inkscape:pagecheckerboard="0"
     inkscape:deskcolor="#d1d1d1"
     inkscape:document-units="mm"
     inkscape:zoom="0.70822811"
     inkscape:cx="343.81578"
     inkscape:cy="544.31615"
     inkscape:window-width="1920"
     inkscape:window-height="991"
     inkscape:window-x="-9"
     inkscape:window-y="-9"
     inkscape:window-maximized="1"
     inkscape:current-layer="layer1" />
  <defs
     id="defs1" />
  <g
     inkscape:label="Layer 1"
     inkscape:groupmode="layer"
     id="layer1"
     transform="translate(-14.022916,-4.4979188)">
    <path
       d="m 27.796771,159.3605 c -1.89251,-0.41337 -5.57531,-2.05758 -5.57531,-2.48913 0,-0.1527 -0.10265,-0.24786 -0.22811,-0.21148 -0.42544,0.12336 -3.00498,-2.26025 -4.19807,-3.8792 -1.61798,-2.19551 -2.65611,-4.32868 -3.26476,-6.70848 -0.49554,-1.93754 -0.51102,-3.39615 -0.50723,-47.795275 0.004,-48.49105 -0.0159,-47.6355 1.16791,-49.86489 0.20279,-0.38189 0.51278,-1.0813 0.68887,-1.55425 0.1761,-0.47294 0.42479,-0.85989 0.55266,-0.85989 0.12787,0 0.23248,-0.12409 0.23248,-0.27575 0,-0.60515 3.2941,-4.11342 4.26643,-4.54381 0.41836,-0.18519 0.76066,-0.43373 0.76066,-0.55231 0,-0.11859 0.11906,-0.14203 0.26458,-0.0521 0.14552,0.0899 0.26458,0.0519 0.26458,-0.0846 0,-0.13645 0.38696,-0.40215 0.8599,-0.59044 0.47294,-0.18829 0.89012,-0.36195 0.92706,-0.3859 0.0369,-0.0239 0.19661,-0.74377 0.35482,-1.59959 0.35035,-1.89522 0.98744,-3.15868 2.14342,-4.25078 1.05269,-0.99451 2.91156,-1.92253 4.17993,-2.08678 1.97993,-0.25639 42.294459,-0.36504 44.841679,-0.12085 2.2537,0.21606 2.97816,0.41414 4.96094,1.3564 1.27701,0.60687 2.32184,1.19469 2.32184,1.30627 0,0.11159 0.20836,0.26976 0.46302,0.3515 0.25466,0.0817 1.41552,0.98188 2.57969,2.0003 1.16416,1.01843 2.70559,2.1502 3.425375,2.51505 1.30381,0.66086 1.33641,0.66336 8.67476,0.66336 h 7.366035 l -0.0758,-9.33869 c -0.0713,-8.78723 -0.10664,-9.38484 -0.59809,-10.12031 -0.28726,-0.4299 -0.52538,-0.89916 -0.52917,-1.04282 -0.004,-0.14365 -0.54265,-0.52938 -1.1975,-0.85716 l -1.19062,-0.59597 -34.1974,-0.003 c -33.699649,-0.003 -34.204999,0.005 -34.719829,0.51971 -0.28734,0.28734 -0.59469,0.8103 -0.68299,1.16213 -0.16625,0.66237 0.35581,1.95344 1.00914,2.49566 0.26824,0.22262 4.68769,0.31084 16.330329,0.326 l 15.96255,0.0208 0.88504,0.88504 c 0.99996,0.99996 1.13026,1.89637 0.44443,3.05739 -0.24233,0.41024 -0.72419,0.87509 -1.07078,1.03302 -0.43104,0.19639 -5.87296,0.28986 -17.22034,0.29578 -9.124579,0.005 -17.385399,0.11124 -18.357359,0.23661 -3.33625,0.43035 -6.3157,2.37776 -7.91488,5.17329 l -0.75987,1.32832 0.0947,-8.86354 c 0.0521,-4.87495 0.10974,-9.10167 0.12807,-9.39271 0.058,-0.92159 1.14683,-4.10104 1.4044,-4.10104 0.13586,0 0.18114,-0.10659 0.10063,-0.23686 -0.0805,-0.13027 0.0391,-0.30803 0.26574,-0.39501 0.22667,-0.087 0.34481,-0.26706 0.26254,-0.40018 -0.20625,-0.33371 1.67291,-2.65842 2.99592,-3.70626 0.59888,-0.47433 1.08887,-0.77442 1.08887,-0.66688 0,0.10755 0.20836,0.0269 0.46302,-0.17913 0.72289,-0.58494 2.00913,-1.24673 2.86124,-1.47217 0.42723,-0.11302 6.25366,-0.24287 12.947619,-0.28855 12.03915,-0.0822 13.96263,0.0217 14.90598,0.80458 0.19852,0.16476 0.52323,0.32337 0.72158,0.35249 0.87999,0.12915 2.25656,1.43343 5.08354,4.81657 0.77539,0.92793 1.44211,1.44201 2.11667,1.63205 0.63128,0.17785 7.3,0.29957 18.57952,0.33911 14.89378,0.0522 17.69633,0.12118 18.25625,0.4492 0.3638,0.21312 0.72099,0.39214 0.79375,0.39783 0.0728,0.006 0.68784,0.33648 1.36685,0.73511 1.31829,0.77394 3.20717,2.77258 2.97514,3.14801 -0.0769,0.12449 -0.0319,0.22634 0.10013,0.22634 0.28333,0 0.97847,1.54848 1.36592,3.04271 0.16261,0.62712 0.27886,4.77753 0.28531,10.18645 l 0.0109,9.12813 1.7374,1.05833 c 1.72621,1.05152 4.69847,3.9822 4.44865,4.38641 -0.0718,0.1162 0.0354,0.30789 0.23831,0.42598 0.46922,0.27309 1.78986,2.87368 1.57065,3.09289 -0.0905,0.0905 -0.0384,0.16451 0.11566,0.16451 0.1541,0 0.50137,0.86321 0.77171,1.91823 0.46966,1.83292 0.49152,3.94819 0.49152,47.55886 0,42.103605 -0.0348,45.766135 -0.44881,47.260155 -0.52079,1.8793 -2.04264,5.39193 -2.33606,5.39193 -0.11026,0 -0.27594,0.30069 -0.36818,0.66819 -0.21785,0.86798 -4.17433,4.82446 -5.04231,5.04231 -0.3675,0.0922 -0.66819,0.25454 -0.66819,0.36067 0,0.25975 -2.4354,1.43183 -4.23333,2.03736 -1.38698,0.46712 -3.23538,0.49235 -39.42292,0.53803 -31.743529,0.0401 -38.246509,-0.013 -39.668439,-0.32355 z m 42.083079,-9.40477 c 0.52768,-0.26569 1.01945,-0.42304 1.09282,-0.34968 0.19269,0.1927 1.98162,-2.31191 2.44723,-3.42629 0.47235,-1.13049 0.51282,-3.28765 0.0883,-4.70472 -0.37205,-1.24179 -1.78826,-2.95041 -3.16679,-3.82064 l -1.01525,-0.6409 -0.0706,-22.34542 c -0.0694,-21.991155 -0.0789,-22.351865 -0.59972,-22.751735 -1.21132,-0.93009 -2.97033,-0.69573 -3.64813,0.48608 -0.2411,0.42037 -0.35343,6.05019 -0.45291,22.698825 l -0.13229,22.13979 -1.09722,0.79472 c -1.29473,0.93778 -2.28464,2.20143 -2.7027,3.45007 -0.41743,1.24675 -0.37652,3.56738 0.0822,4.66537 0.21085,0.50465 0.31463,0.91754 0.2306,0.91754 -0.44053,0 2.80125,2.94194 3.35868,3.04802 0.36165,0.0688 1.01474,0.23571 1.4513,0.37086 1.03359,0.31997 2.92607,0.0765 4.13443,-0.53189 z m -3.73755,-4.2099 c 0,-0.14553 -0.17441,-0.26459 -0.38757,-0.26459 -0.21316,0 -0.51744,-0.24267 -0.67618,-0.53927 -0.38748,-0.72402 -0.23168,-2.78898 0.20385,-2.70187 0.1819,0.0364 0.33073,-0.10299 0.33073,-0.30971 0,-0.80504 2.30724,-0.80633 3.19624,-0.002 1.05505,0.95481 0.75039,3.12107 -0.53575,3.80939 -0.65175,0.34881 -2.13132,0.35425 -2.13132,0.008 z m -30.348869,2.00411 c 0.75929,-0.57585 0.86359,-2.02326 0.19685,-2.73172 -0.49837,-0.52954 -0.81669,-0.59531 -2.88132,-0.59531 -2.65693,0 -3.47916,0.44014 -3.47916,1.86239 0,1.43583 0.74901,1.8429 3.37343,1.83336 1.53291,-0.006 2.47563,-0.13015 2.7902,-0.36872 z m 66.692849,-1.60881 c 0.62797,-0.62797 0.76005,-1.38366 0.38049,-2.17698 -0.34464,-0.72033 -0.39267,-0.73305 -3.047115,-0.80713 -2.63005,-0.0734 -2.70783,-0.0587 -3.13508,0.59338 -0.50455,0.77005 -0.33469,1.9015 0.36536,2.43369 0.66741,0.50737 4.919625,0.47377 5.436345,-0.043 z m -50.59867,-5.84896 c 0.71156,-0.64396 0.66819,-2.39912 -0.0789,-3.1944 -1.01298,-1.07826 -3.45551,-0.6616 -3.78355,0.64542 -0.44186,1.7605 0.85302,3.40599 2.47334,3.14305 0.49103,-0.0797 1.11615,-0.34702 1.38914,-0.59407 z m 34.61075,-0.0978 c 0.49813,-0.14286 1.00154,-0.41075 1.11868,-0.59531 0.3443,-0.54245 0.25271,-1.62788 -0.19079,-2.26107 -0.37439,-0.53452 -0.63133,-0.58804 -2.82343,-0.58804 -2.75969,0 -3.37927,0.31532 -3.37927,1.71979 0,0.81925 0.49574,1.49253 1.32291,1.79667 0.66703,0.24526 2.9934,0.20285 3.9519,-0.072 z m 12.386125,-7.62275 c 0.4789,-0.60922 0.40683,-1.30181 -0.19844,-1.90708 -0.84844,-0.84845 -1.75426,-0.67005 -2.35095,0.46302 -0.80079,1.52062 1.4756,2.81005 2.54939,1.44406 z m -73.482724,-3.36503 c 2.5792,-1.33376 0.99646,-4.9965 -1.76523,-4.08506 -1.0364,0.34205 -1.41507,0.92331 -1.41507,2.1722 0,0.88611 0.6772,1.79285 1.5875,2.12562 0.62928,0.23003 0.77389,0.21071 1.5928,-0.21276 z M 51.12051,128.5358 c 1.50812,-0.41884 3.13826,-1.81553 3.96413,-3.39642 1.36444,-2.61185 0.78747,-6.08161 -1.3443,-8.08424 l -0.82721,-0.77711 v -6.54946 c 0,-3.60221 0.0944,-6.60779 0.20969,-6.67907 0.11533,-0.0713 0.70711,-0.18674 1.31506,-0.25658 0.60795,-0.0699 1.47956,-0.39344 1.93691,-0.7191 1.39748,-0.9951 1.59117,-1.85971 1.55242,-6.929705 -0.0337,-4.40628 -0.0527,-4.55315 -0.70054,-5.40248 -1.01927,-1.33633 -2.35869,-2.0338 -4.28955,-2.23365 -1.19251,-0.12343 -1.81345,-0.3207 -2.05674,-0.65341 -0.25489,-0.34858 -0.34894,-1.65347 -0.35013,-4.857801 -0.002,-4.75425 -0.1489,-5.38659 -1.50079,-6.44999 -0.87572,-0.68884 -1.01546,-0.71887 -3.71067,-0.79753 -1.19372,-0.0348 -2.26528,-0.15955 -2.38125,-0.27713 -0.23159,-0.23479 -0.20583,-13.391649 0.028,-14.290169 0.0811,-0.31183 0.60611,-0.7768 1.18982,-1.05384 2.19775,-1.0431 3.47068,-3.22296 3.46032,-5.92571 -0.009,-2.23657 -1.0722,-4.1531 -3.19842,-5.76314 -0.7533,-0.57042 -2.9058,-0.98373 -4.348039,-0.83487 -2.4212,0.24989 -4.18065,1.63412 -5.3946,4.24416 -0.64359,1.38374 -0.69559,1.70617 -0.50264,3.11702 0.11836,0.86549 0.38769,1.90717 0.59851,2.31485 0.4084,0.78977 2.26767,3.11012 2.26767,2.83004 0,-0.0917 0.24006,-0.0382 0.53347,0.11887 0.51725,0.27682 0.53132,0.5003 0.46302,7.35149 l -0.0705,7.065999 -2.51354,0.13278 c -2.68496,0.14184 -3.7654,0.57515 -5.19908,2.08507 -1.4253,1.50109 -1.81333,2.62698 -1.79974,5.22201 0.009,1.72384 0.12235,2.53394 0.39687,2.83708 0.21133,0.23336 0.74143,0.90107 1.17799,1.483801 0.78632,1.04959 3.43563,2.65905 4.37703,2.65905 0.69156,0 0.77482,0.72366 0.77873,6.76817 l 0.004,5.577545 -1.18801,0.85316 c -1.69236,1.21536 -2.56213,2.82619 -2.70572,5.01103 -0.13825,2.10365 0.23044,3.2988 1.5181,4.92114 1.21309,1.52838 2.58637,2.17064 4.7997,2.24473 3.0383,0.10171 5.358979,-1.32553 6.600759,-4.05952 1.36563,-3.00668 -0.16099,-7.0424 -3.270149,-8.64481 l -0.99218,-0.51136 v -6.973695 c 0,-5.87605 -0.0625,-7.02552 -0.39688,-7.30306 -0.21828,-0.18116 -0.39687,-0.49339 -0.39687,-0.69385 0,-0.20047 -0.0966,-0.364481 -0.2147,-0.364481 -0.11808,0 -0.45131,-0.22045 -0.74051,-0.48988 -0.28921,-0.26944 -1.32549,-0.75599 -2.30286,-1.08124 -1.6125,-0.53661 -2.50727,-1.07322 -2.59556,-1.55663 -0.16265,-0.89057 -0.11361,-2.16392 0.0833,-2.16392 0.1349,0 0.19122,-0.0893 0.12514,-0.19844 -0.0661,-0.10914 0.046,-0.35196 0.24897,-0.53959 0.20301,-0.18764 0.3691,-0.26236 0.3691,-0.16604 0,0.0963 0.14883,0.0631 0.33073,-0.0739 0.41333,-0.31118 1.46124,-0.44756 3.51806,-0.45786 1.27456,-0.006 1.723,0.10675 2.2057,0.55646 0.72479,0.67524 1.604969,0.85988 4.330409,0.90839 l 2.05052,0.0365 0.0403,4.13442 c 0.0469,4.816391 10e-4,4.399441 0.61437,5.635001 0.54656,1.10185 2.63597,2.41453 4.03503,2.53501 0.46928,0.0404 1.15389,0.18779 1.52135,0.3275 0.65326,0.24837 0.66812,0.31314 0.66812,2.91295 0,2.61577 -0.0111,2.66315 -0.68366,2.91886 -0.37602,0.14296 -0.79274,0.19251 -0.92605,0.11012 -0.1333,-0.0824 -0.24238,-0.011 -0.24238,0.15871 0,0.16968 -0.15531,0.24891 -0.34513,0.17607 -0.53558,-0.20553 -2.47845,1.968785 -2.80265,3.136515 -0.17046,0.61394 -0.28945,3.56558 -0.29032,7.20132 l -10e-4,6.16096 -1.18586,0.50832 c -2.93594,1.25849 -4.64188,3.65557 -4.68223,6.57918 -0.0331,2.39502 2.51257,5.88901 4.66657,6.40508 1.21217,0.29042 3.06628,0.27722 4.1714,-0.0297 z m -3.25739,-4.56041 c -1.16535,-0.89472 -1.33443,-2.43989 -0.38983,-3.56248 0.55657,-0.66144 0.79956,-0.75505 1.76229,-0.67889 0.61418,0.0486 1.27665,0.22108 1.47214,0.38332 0.53466,0.44373 0.82865,1.85219 0.55488,2.65838 -0.4463,1.3143 -2.36725,1.9922 -3.39948,1.19967 z M 36.364651,108.31931 c -0.66805,-0.66805 -0.89226,-2.07968 -0.38054,-2.39594 0.1479,-0.0914 0.22632,-0.24726 0.17427,-0.34635 -0.0521,-0.0991 0.1246,-0.38851 0.39255,-0.64317 0.26796,-0.25467 0.4872,-0.38892 0.4872,-0.29834 0,0.0906 0.16721,0.0259 0.37157,-0.14368 0.97327,-0.80775 2.80343,0.67786 2.80343,2.27566 0,1.97328 -2.44224,2.95806 -3.84848,1.55182 z m 3.66547,-52.805465 c -0.92131,-0.36075 -1.49457,-1.45001 -1.32218,-2.51231 0.19921,-1.22757 0.75667,-1.73218 2.08177,-1.88442 0.941789,-0.1082 1.192169,-0.0235 1.768399,0.59789 0.89263,0.96267 0.90234,2.27749 0.023,3.122 -0.76389,0.73368 -1.742659,0.99336 -2.551029,0.67684 z M 87.89004,127.873 c 0.6263,-0.42024 1.23686,-0.735 1.356815,-0.69948 0.11996,0.0355 0.15103,-0.0439 0.0691,-0.17658 -0.082,-0.13263 0.0476,-0.40348 0.28792,-0.60186 0.82186,-0.67845 1.50091,-2.65841 1.48849,-4.3401 -0.0203,-2.7437 -1.71618,-5.14197 -4.510965,-6.37922 l -1.38906,-0.61493 v -6.82954 -6.82954 l -0.70608,-1.08893 c -0.58665,-0.904765 -0.9782,-1.178065 -2.3151,-1.615955 l -1.60903,-0.52703 -0.0748,-2.77661 -0.0748,-2.77661 1.39775,-0.20765 c 0.76877,-0.11421 1.48705,-0.18545 1.59619,-0.15832 0.10914,0.0271 0.19844,-0.0697 0.19844,-0.21524 0,-0.14552 0.15292,-0.26459 0.33983,-0.26459 0.1869,0 0.57338,-0.38695 0.85884,-0.85989 0.4434,-0.7346 0.53845,-1.50868 0.65236,-5.31242 0.0733,-2.448891 0.0381,-4.621781 -0.0782,-4.828651 -0.12723,-0.22617 -0.0946,-0.37612 0.0818,-0.37612 0.16134,0 0.22747,-0.10659 0.14696,-0.23686 -0.25095,-0.40604 0.59894,-0.55689 3.13745,-0.55689 1.347415,0 3.004555,-0.16694 3.682525,-0.37098 0.67797,-0.20404 1.23267,-0.32036 1.23267,-0.25848 0,0.0619 0.2679,-0.0601 0.59532,-0.27109 0.83812,-0.54004 4.58957,-0.77229 5.751585,-0.35607 1.17623,0.4213 1.69512,1.44247 1.45505,2.86346 -0.19118,1.13156 -0.86262,1.66639 -2.395265,1.90794 -0.4427,0.0698 -1.27476,0.36043 -1.84902,0.64591 -3.5088,1.744291 -3.54407,1.843381 -3.5724,10.037091 -0.0238,6.896935 0.25413,5.94748 -2.26463,7.735195 -1.54727,1.09819 -2.483135,3.0737 -2.483135,5.24166 0,2.12114 0.652105,3.55377 2.364675,5.19504 1.23801,1.18646 1.36467,1.24119 3.23223,1.39663 1.26624,0.10539 2.35871,0.0426 3.13434,-0.18025 0.65485,-0.18812 1.27993,-0.321 1.38907,-0.29529 0.10914,0.0257 0.19843,-0.0626 0.19843,-0.19626 0,-0.13365 0.41874,-0.5018 0.930525,-0.8181 1.73898,-1.07474 2.69079,-4.50095 1.98181,-7.13388 -0.23809,-0.8842 -0.73943,-1.59179 -2.0116,-2.83916 l -1.694485,-1.66144 v -5.813745 c 0,-6.49361 -0.12607,-6.08036 1.984385,-6.50461 0.58208,-0.11701 1.11786,-0.22697 1.19062,-0.24435 0.5794,-0.13842 1.88528,-1.06609 2.68283,-1.90585 1.57586,-1.659241 1.93951,-2.591491 1.94369,-4.982741 0.003,-1.82107 -0.0946,-2.28295 -0.70031,-3.3073 -0.8504,-1.43822 -1.85094,-2.40412 -3.26083,-3.1479 -0.86078,-0.45411 -1.52367,-0.55626 -3.609715,-0.55626 -2.08602,0 -2.58479,-0.0769 -2.7159,-0.41852 -0.0883,-0.23018 -0.1606,-3.43117 -0.1606,-7.113319 0,-6.64681 0.004,-6.69769 0.59531,-7.0983 0.9693,-0.65699 2.31511,-1.9872 2.31511,-2.28828 0,-0.15372 0.0986,-0.2795 0.21914,-0.2795 0.24105,0 0.83919,-2.33745 0.83919,-3.27945 0,-1.5386 -0.82492,-3.30804 -2.25085,-4.82801 -0.79932,-0.85204 -1.45332,-1.46609 -1.45332,-1.36456 0,0.10153 -0.41289,0.0121 -0.91754,-0.19877 -1.85019,-0.77306 -4.89341,-0.32402 -6.325055,0.93328 -0.41817,0.36725 -0.89442,0.62803 -1.05833,0.57953 -0.16391,-0.0485 -0.21889,-0.009 -0.12216,0.0877 0.0967,0.0967 -0.10994,0.597 -0.45924,1.11173 -0.70356,1.03675 -1.1681,2.46579 -1.17036,3.60028 -0.002,0.83384 0.52984,3.1549 0.76902,3.35831 0.0855,0.0728 0.63658,0.66807 1.22451,1.32292 0.58792,0.65484 1.1237,1.20292 1.190615,1.21795 0.74889,0.16817 1.48171,0.49723 1.63897,0.73594 0.10691,0.16229 0.19621,3.4758 0.19844,7.36336 0.005,8.282269 0.30973,7.615549 -3.484275,7.617069 -2.63214,10e-4 -3.82554,0.42125 -4.43601,1.56191 -0.15685,0.29309 -0.35063,2.59142 -0.43063,5.10739 -0.08,2.51598 -0.19751,4.833881 -0.26115,5.150911 -0.0919,0.45757 -0.42594,0.64582 -1.62046,0.91315 -1.80836,0.40469 -3.71046,1.62588 -4.40716,2.8295 -0.59002,1.0193 -0.90271,5.62806 -0.58385,8.60551 0.1574,1.469745 0.33886,1.940175 1.09964,2.850775 0.75671,0.90571 1.1007,1.10737 2.02944,1.18972 0.61507,0.0545 1.26722,0.11931 1.44923,0.14395 0.25654,0.0347 0.31601,1.4771 0.26458,6.41686 -0.0365,3.50463 -0.12751,6.43158 -0.20227,6.50434 -0.58973,0.57395 -2.38761,2.91042 -2.23953,2.91042 0.10305,0 0.0163,0.26789 -0.19279,0.59531 -0.54441,0.85254 -0.58177,3.06802 -0.075,4.44531 0.23822,0.6474 0.44423,1.32079 0.45779,1.49643 0.0136,0.17564 0.19096,0.38316 0.39421,0.46115 0.20325,0.078 0.29545,0.26171 0.20487,0.40826 -0.0906,0.14655 -0.0684,0.26701 0.0494,0.26768 0.11773,6.7e-4 0.58763,0.35139 1.04422,0.77938 0.4566,0.42798 0.90308,0.70525 0.99219,0.61614 0.0891,-0.0891 0.16202,-0.0161 0.16202,0.16227 0,0.17837 0.0893,0.27264 0.19844,0.2095 0.10914,-0.0631 0.43656,-0.0119 0.7276,0.11398 0.29104,0.12583 1.4455,0.19052 2.56545,0.14376 1.72443,-0.072 2.21068,-0.20203 3.175,-0.84908 z m -4.75383,-3.73551 c -0.46852,-0.18851 -1.11891,-1.52015 -1.11891,-2.29092 0,-0.35321 0.17728,-0.78933 0.39396,-0.96916 0.21668,-0.17983 0.32689,-0.43548 0.24492,-0.56812 -0.082,-0.13264 -0.0509,-0.21291 0.0691,-0.17839 0.11995,0.0345 0.50036,-0.0935 0.84534,-0.28443 0.48289,-0.26729 0.58004,-0.27082 0.42214,-0.0153 -0.14622,0.23659 -0.0984,0.26529 0.16651,0.1 0.50573,-0.31556 1.03307,-0.37779 1.03307,-0.12191 0,0.11567 0.2501,0.27572 0.55579,0.35566 0.30604,0.08 0.47736,0.27223 0.38126,0.42773 -0.096,0.15532 -0.0614,0.28239 0.077,0.28239 0.42145,0 0.60596,1.29662 0.27375,1.92366 -0.68562,1.29413 -2.0737,1.84989 -3.34387,1.33884 z m 10.869975,-15.76406 c -0.74955,-0.82822 -0.91055,-1.72119 -0.49125,-2.7247 0.45539,-1.08991 1.8884,-1.65924 2.83403,-1.12596 1.66816,0.94076 2.06486,2.62558 0.8939,3.79654 -0.87158,0.87158 -2.47264,0.89835 -3.23668,0.0541 z m -2.75496,-53.347935 c -0.83531,-0.6764 -0.90609,-2.67439 -0.1203,-3.39575 0.36468,-0.33477 0.44179,-0.35316 0.26459,-0.0631 -0.16714,0.27356 -0.10897,0.25729 0.17534,-0.049 0.61996,-0.66798 2.56087,-0.4877 3.19619,0.29688 1.13311,1.39935 0.0513,3.55219 -1.84113,3.66385 -0.706,0.0417 -1.24351,-0.10368 -1.67469,-0.45282 z m 19.277855,68.865165 c 1.39967,-0.27994 1.89783,-2.56919 0.81085,-3.72622 -0.85151,-0.90639 -2.62975,-0.86171 -3.37426,0.0848 -0.78671,1.00014 -0.70517,2.09719 0.22503,3.02738 0.81186,0.81187 1.04424,0.87289 2.33838,0.61407 z M 79.29822,85.692625 c 0.46904,-0.28599 0.90807,-0.791561 0.97563,-1.123491 0.0676,-0.33194 0.20192,-4.35399 0.29859,-8.9379 0.0967,-4.5839 0.18349,-8.473279 0.19294,-8.643049 0.0104,-0.18751 0.49046,-0.30868 1.22281,-0.30868 1.28046,0 2.14577,-0.6575 2.14577,-1.63044 0,-0.45346 -3.09926,-4.64547 -4.54371,-6.14574 -1.24064,-1.2886 -1.26078,-1.27547 -5.10109,3.32492 -1.0279,1.23133 -1.73228,2.32216 -1.73228,2.68266 0,0.99355 0.80192,1.73565 1.91823,1.77514 l 0.99219,0.0351 v 8.675929 c 0,5.62892 0.1,8.89537 0.28469,9.30075 0.30707,0.673961 1.45346,1.498911 2.09656,1.508721 0.21828,0.003 0.78063,-0.22794 1.24967,-0.51392 z m -14.67004,-0.5523 c 0.54968,-0.15265 1.39575,-0.625521 1.88015,-1.050831 0.4844,-0.42532 0.97649,-0.68671 1.09352,-0.58088 0.11703,0.10583 0.13217,0.0517 0.0336,-0.12021 -0.10015,-0.17479 0.0853,-0.49784 0.4206,-0.7327 0.32986,-0.23104 0.58424,-0.50708 0.56529,-0.61342 -0.019,-0.10634 0.0806,-0.491 0.22124,-0.8548 0.14674,-0.37961 0.31069,-6.63652 0.38479,-14.684369 0.0764,-8.30111 0.22973,-14.05913 0.37572,-14.11166 0.13564,-0.0488 0.18462,-0.18907 0.10884,-0.31168 -0.0758,-0.12262 0.10989,-0.30155 0.41261,-0.39763 0.94046,-0.29849 2.37261,-1.74276 3.04616,-3.07194 0.86115,-1.6994 0.87747,-4.12347 0.0383,-5.68195 -1.20435,-2.23653 -1.60595,-2.66483 -3.20804,-3.42135 -2.74141,-1.2945 -5.64469,-0.80345 -7.53841,1.27504 -1.59012,1.74527 -1.98171,2.72226 -1.9846,4.95137 -0.002,1.67104 0.10323,2.15149 0.66741,3.04271 0.36848,0.58209 0.74683,1.2667 0.84078,1.52136 0.0939,0.25466 0.33468,0.46302 0.53497,0.46302 0.2003,0 0.57967,0.23812 0.84306,0.52916 0.26339,0.29105 0.64762,0.52917 0.85385,0.52917 0.3193,0 0.36561,1.91494 0.31194,12.89844 -0.0347,7.094139 -0.13256,13.493509 -0.21753,14.220809 -0.14745,1.26197 -0.20285,1.33857 -1.21284,1.67673 -1.07687,0.36055 -4.50438,0.31613 -5.12333,-0.0664 -0.23227,-0.14355 -0.30918,-1.98945 -0.29117,-6.98784 l 0.0245,-6.792769 1.07616,-0.0141 c 0.79387,-0.0104 1.20585,-0.17426 1.57053,-0.62462 0.69864,-0.86278 0.62028,-1.31413 -0.46326,-2.66856 -0.52387,-0.65485 -1.6002,-2.04769 -2.39184,-3.0952 -1.50623,-1.99309 -2.12162,-2.40226 -2.94788,-1.96006 -0.81456,0.43594 -4.65609,5.24633 -5.01902,6.28485 -0.31234,0.89376 -0.29358,0.9921 0.26458,1.38753 0.33041,0.23407 1.13653,0.48512 1.79137,0.55788 l 1.19063,0.13229 0.13229,7.672919 c 0.1116,6.47286 0.20078,7.79706 0.57017,8.46666 0.54658,0.99079 1.47726,1.87213 2.34038,2.216301 0.88606,0.35331 7.5469,0.36599 8.8045,0.0168 z m 1.83833,-37.23505 c -0.33101,-0.0516 -0.80359,-0.40172 -1.05018,-0.77807 -0.49304,-0.75247 -0.66168,-2.45222 -0.2433,-2.45222 0.14504,0 0.19151,-0.0722 0.10326,-0.16046 -0.26409,-0.26408 0.6798,-1.07492 1.4731,-1.26545 1.56649,-0.37623 3.18895,1.51717 2.60621,3.04145 -0.45402,1.1876 -1.58259,1.81837 -2.88909,1.61475 z m 42.15344,14.11195 c 0.81857,-0.81858 0.86235,-2.18353 0.10106,-3.15135 -0.44243,-0.56246 -0.77096,-0.69714 -1.70059,-0.69714 -1.76168,0 -2.61915,1.37159 -2.09009,3.34325 0.33197,1.23715 2.64146,1.55339 3.68962,0.50524 z m -84.026129,-6.35743 c 1.4788,-0.76472 1.60875,-2.98185 0.23131,-3.94665 -0.95243,-0.66711 -2.00876,-0.53002 -2.91739,0.37861 -0.67234,0.67234 -0.7754,0.94002 -0.63669,1.65365 0.091,0.4683 0.18336,0.99505 0.20518,1.17055 0.0218,0.1755 0.1389,0.25777 0.26016,0.18282 0.12127,-0.075 0.22049,-0.0284 0.22049,0.1035 0,0.26477 0.9942,0.80375 1.53449,0.83189 0.18913,0.01 0.68523,-0.15862 1.10245,-0.37437 z"
       id="path3" />
  </g>
</svg>
